<svg xmlns="http://www.w3.org/2000/svg" width="16" height="16" viewBox="0 0 16 16"><defs><style>.a{fill:#0a2463;}</style></defs><circle class="a" cx="0.737" cy="0.737" r="0.737" transform="translate(11.204 5.949)"/><path class="a" d="M13.5,1.25h-.813V.625a.625.625,0,0,0-1.25,0V1.25H8.594V.625a.625.625,0,1,0-1.25,0V1.25H4.531V.625a.625.625,0,0,0-1.25,0V1.25H2.5A2.5,2.5,0,0,0,0,3.75V13.5A2.5,2.5,0,0,0,2.5,16H7.281a.625.625,0,1,0,0-1.25H2.5A1.251,1.251,0,0,1,1.25,13.5V3.75A1.251,1.251,0,0,1,2.5,2.5h.781v.625a.625.625,0,1,0,1.25,0V2.5H7.344v.625a.625.625,0,1,0,1.25,0V2.5h2.844v.625a.625.625,0,0,0,1.25,0V2.5H13.5a1.251,1.251,0,0,1,1.25,1.25V7.313a.625.625,0,1,0,1.25,0V3.75A2.5,2.5,0,0,0,13.5,1.25Z"/><path class="a" d="M274.2,270a4.2,4.2,0,1,0,4.2,4.2A4.207,4.207,0,0,0,274.2,270Zm0,7.016a2.813,2.813,0,1,1,2.813-2.813A2.817,2.817,0,0,1,274.2,277.016Z" transform="translate(-262.405 -262.405)"/><path class="a" d="M372.7,331.424h-.313v-.729a.695.695,0,0,0-1.389,0v1.424a.7.7,0,0,0,.695.695H372.7a.695.695,0,1,0,0-1.389Z" transform="translate(-359.947 -319.904)"/><circle class="a" cx="0.737" cy="0.737" r="0.737" transform="translate(8.576 5.949)"/><circle class="a" cx="0.737" cy="0.737" r="0.737" transform="translate(5.949 8.576)"/><circle class="a" cx="0.737" cy="0.737" r="0.737" transform="translate(3.321 5.949)"/><circle class="a" cx="0.737" cy="0.737" r="0.737" transform="translate(3.321 8.576)"/><circle class="a" cx="0.737" cy="0.737" r="0.737" transform="translate(3.321 11.204)"/><circle class="a" cx="0.737" cy="0.737" r="0.737" transform="translate(5.949 11.204)"/><circle class="a" cx="0.737" cy="0.737" r="0.737" transform="translate(5.949 5.949)"/></svg>