<svg xmlns="http://www.w3.org/2000/svg" width="16.001" height="16" viewBox="0 0 16.001 16"><defs><style>.a{fill:#0a2463;}</style></defs><circle class="a" cx="0.75" cy="0.75" r="0.75" transform="translate(11.185 5.939)"/><path class="a" d="M13.5,1.25h-.813V.625a.625.625,0,0,0-1.25,0V1.25H8.594V.625a.625.625,0,0,0-1.25,0V1.25H4.531V.625a.625.625,0,1,0-1.25,0V1.25H2.5A2.5,2.5,0,0,0,0,3.75V13.5A2.5,2.5,0,0,0,2.5,16H7.282a.625.625,0,1,0,0-1.25H2.5A1.251,1.251,0,0,1,1.25,13.5V3.75A1.251,1.251,0,0,1,2.5,2.5h.781v.625a.625.625,0,1,0,1.25,0V2.5H7.344v.625a.625.625,0,1,0,1.25,0V2.5h2.844v.625a.625.625,0,0,0,1.25,0V2.5H13.5a1.251,1.251,0,0,1,1.25,1.25V7.313a.625.625,0,1,0,1.25,0V3.75A2.5,2.5,0,0,0,13.5,1.25Z"/><path class="a" d="M274.274,270a4.274,4.274,0,1,0,4.274,4.274A4.279,4.279,0,0,0,274.274,270Zm0,7.135a2.861,2.861,0,1,1,2.861-2.861A2.864,2.864,0,0,1,274.274,277.135Z" transform="translate(-262.548 -262.548)"/><path class="a" d="M372.731,331.448h-.318v-.742a.706.706,0,0,0-1.413,0v1.448a.706.706,0,0,0,.706.706h1.024a.706.706,0,0,0,0-1.413Z" transform="translate(-359.98 -319.94)"/><circle class="a" cx="0.75" cy="0.75" r="0.75" transform="translate(8.562 5.939)"/><circle class="a" cx="0.75" cy="0.75" r="0.75" transform="translate(5.939 8.562)"/><circle class="a" cx="0.75" cy="0.75" r="0.75" transform="translate(3.316 5.939)"/><circle class="a" cx="0.75" cy="0.75" r="0.75" transform="translate(3.316 8.562)"/><circle class="a" cx="0.75" cy="0.75" r="0.75" transform="translate(3.316 11.185)"/><circle class="a" cx="0.75" cy="0.75" r="0.75" transform="translate(5.939 11.185)"/><circle class="a" cx="0.75" cy="0.75" r="0.75" transform="translate(5.939 5.939)"/></svg>