<svg xmlns="http://www.w3.org/2000/svg" width="32" height="32" viewBox="0 0 32 32"><defs><style>.a{fill:#0a2463;}</style></defs><circle class="a" cx="1.5" cy="1.5" r="1.5" transform="translate(22.368 11.877)"/><path class="a" d="M27,2.5H25.375V1.25a1.25,1.25,0,0,0-2.5,0V2.5H17.188V1.25a1.25,1.25,0,1,0-2.5,0V2.5H9.063V1.25a1.25,1.25,0,0,0-2.5,0V2.5H5a5.006,5.006,0,0,0-5,5V27a5.006,5.006,0,0,0,5,5h9.563a1.25,1.25,0,1,0,0-2.5H5A2.5,2.5,0,0,1,2.5,27V7.5A2.5,2.5,0,0,1,5,5H6.563V6.25a1.25,1.25,0,1,0,2.5,0V5h5.625V6.25a1.25,1.25,0,1,0,2.5,0V5h5.687V6.25a1.25,1.25,0,0,0,2.5,0V5H27a2.5,2.5,0,0,1,2.5,2.5v7.125a1.25,1.25,0,1,0,2.5,0V7.5A5.006,5.006,0,0,0,27,2.5Z"/><path class="a" d="M278.548,270a8.548,8.548,0,1,0,8.548,8.548A8.558,8.558,0,0,0,278.548,270Zm0,14.27a5.722,5.722,0,1,1,5.722-5.722A5.729,5.729,0,0,1,278.548,284.27Z" transform="translate(-255.096 -255.096)"/><path class="a" d="M374.462,332.9h-.636v-1.484a1.413,1.413,0,0,0-2.826,0v2.9a1.413,1.413,0,0,0,1.413,1.413h2.049a1.413,1.413,0,0,0,0-2.826Z" transform="translate(-348.961 -309.88)"/><circle class="a" cx="1.5" cy="1.5" r="1.5" transform="translate(17.123 11.877)"/><circle class="a" cx="1.5" cy="1.5" r="1.5" transform="translate(11.877 17.123)"/><circle class="a" cx="1.5" cy="1.5" r="1.5" transform="translate(6.632 11.877)"/><circle class="a" cx="1.5" cy="1.5" r="1.5" transform="translate(6.632 17.123)"/><circle class="a" cx="1.5" cy="1.5" r="1.5" transform="translate(6.632 22.368)"/><circle class="a" cx="1.5" cy="1.5" r="1.5" transform="translate(11.877 22.368)"/><circle class="a" cx="1.5" cy="1.5" r="1.5" transform="translate(11.877 11.877)"/></svg>