<svg xmlns="http://www.w3.org/2000/svg" width="14.667" height="16" viewBox="0 0 14.667 16"><defs><style>.a{fill:#0a2463;}</style></defs><path class="a" d="M10.04,119.177H1.811A1.812,1.812,0,0,1,0,117.366v-8.888a1.812,1.812,0,0,1,1.811-1.81H2.14a.494.494,0,1,1,0,.988H1.811a.824.824,0,0,0-.823.823v8.888a.824.824,0,0,0,.823.823h8.23a.824.824,0,0,0,.823-.823v-.329a.494.494,0,1,1,.988,0v.329A1.812,1.812,0,0,1,10.04,119.177Zm0,0" transform="translate(0 -103.177)"/><path class="a" d="M136.723,11.851h-6.913A1.812,1.812,0,0,1,128,10.04V1.811A1.812,1.812,0,0,1,129.811,0h6.913a1.812,1.812,0,0,1,1.81,1.811v8.23A1.812,1.812,0,0,1,136.723,11.851ZM129.811.988a.824.824,0,0,0-.823.823v8.23a.824.824,0,0,0,.823.823h6.913a.824.824,0,0,0,.823-.823V1.811a.824.824,0,0,0-.823-.823Zm0,0" transform="translate(-123.867)"/></svg>