<?xml version="1.0" encoding="utf-8"?>
<svg version="1.1" xmlns:xlink="http://www.w3.org/1999/xlink" width="16px" height="17px" xmlns="http://www.w3.org/2000/svg">
  <g transform="matrix(1 0 0 1 -292 -281 )">
    <path d="M 15.695917811187 14.2433692199635  L 9.46583938413106 8.01309716881314  L 15.695917811187 1.78282516625524  C 16.1013607296043 1.37757180117565  16.1013607296043 0.722333124679423  15.695917811187 0.317079759599839  C 15.2906646947219 -0.0881736054797448  14.6354264202009 -0.0881736054797448  14.2301733037359 0.317079759599839  L 7.99990507472766 6.54735181075018  L 1.76982669626414 0.317079759599839  C 1.36438377784678 -0.0881736054797448  0.709335305278109 -0.0881736054797448  0.304082188813024 0.317079759599839  C -0.101360729604341 0.722333124679423  -0.101360729604341 1.37757180117565  0.304082188813024 1.78282516625524  L 6.53416061586895 8.01309716881314  L 0.304082188813024 14.2433692199635  C -0.101360729604341 14.6486225850431  -0.101360729604341 15.3038612615393  0.304082188813024 15.7091146266189  C 0.506044391620176 15.9112667553944  0.771594330203622 16.0128173735465  1.03695446683479 16.0128173735465  C 1.30231455487354 16.0128173735465  1.56767469150471 15.9112667553944  1.76982669626414 15.7091146266189  L 7.99990507472766 9.47884257546854  L 14.2301733037359 15.7091146266189  C 14.4323253084953 15.9112667553944  14.6976854451265 16.0128173735465  14.9630455817576 16.0128173735465  C 15.2284056697964 16.0128173735465  15.4937657578351 15.9112667553944  15.695917811187 15.7091146266189  C 16.1013607296043 15.3038612615393  16.1013607296043 14.6486225850431  15.695917811187 14.2433692199635  Z " fill-rule="nonzero" fill="#0a2463" stroke="none" transform="matrix(1 0 0 1 292 281 )" />
  </g>
</svg>