<svg xmlns="http://www.w3.org/2000/svg" width="16" height="16.132" viewBox="0 0 16 16.132"><defs><style>.a{fill:#FFF;}</style></defs><g transform="translate(-0.786 16.132) rotate(-90)"><g transform="translate(0 0.786)"><path class="a" d="M14.4,85.327l-6.33,7.181-6.33-7.182a.93.93,0,0,0-1.438,0,1.277,1.277,0,0,0,0,1.639l7.049,8a.955.955,0,0,0,1.439,0l7.049-8a1.277,1.277,0,0,0,0-1.639A.933.933,0,0,0,14.4,85.327Z" transform="translate(-0.001 -79.289)"/><path class="a" d="M7.346,10.762a.955.955,0,0,0,1.439,0l7.049-8a1.277,1.277,0,0,0,0-1.639.93.93,0,0,0-1.438,0L8.065,8.307,1.736,1.126a.93.93,0,0,0-1.438,0,1.277,1.277,0,0,0,0,1.639Z" transform="translate(0 -0.786)"/></g></g></svg>