<?xml version="1.0" encoding="utf-8"?>
<svg version="1.1" xmlns:xlink="http://www.w3.org/1999/xlink" width="180px" height="121px" xmlns="http://www.w3.org/2000/svg">
  <defs>
    <mask fill="white" id="clip47">
      <path d="M 0 116.102040816327  L 0 13.2178649237473  C 0 10.4750077808901  2.6400000000001 7.6100917431192  6 8  L 155.786096256685 8  C 155.786096256685 8  160.790653840608 1.04920913884007  161.2 1  C 161.609346159391 0.950790861159931  166.151228733459 8.20697167755992  166.151228733459 8.20697167755992  L 174 8.20697167755992  C 177.36 8.20697167755992  180 10.4750077808901  180 13.2178649237473  L 180 116.102040816327  C 180 118.844897959184  177.36 121  174 121  L 6 121  C 2.6400000000001 121  0 118.844897959184  0 116.102040816327  Z " fill-rule="evenodd" />
    </mask>
  </defs>
  <g transform="matrix(1 0 0 1 -261 -105 )">
    <path d="M 0 116.102040816327  L 0 13.2178649237473  C 0 10.4750077808901  2.6400000000001 7.6100917431192  6 8  L 155.786096256685 8  C 155.786096256685 8  160.790653840608 1.04920913884007  161.2 1  C 161.609346159391 0.950790861159931  166.151228733459 8.20697167755992  166.151228733459 8.20697167755992  L 174 8.20697167755992  C 177.36 8.20697167755992  180 10.4750077808901  180 13.2178649237473  L 180 116.102040816327  C 180 118.844897959184  177.36 121  174 121  L 6 121  C 2.6400000000001 121  0 118.844897959184  0 116.102040816327  Z " fill-rule="nonzero" fill="#ffffff" stroke="none" transform="matrix(1 0 0 1 261 105 )" />
    <path d="M 0 116.102040816327  L 0 13.2178649237473  C 0 10.4750077808901  2.6400000000001 7.6100917431192  6 8  L 155.786096256685 8  C 155.786096256685 8  160.790653840608 1.04920913884007  161.2 1  C 161.609346159391 0.950790861159931  166.151228733459 8.20697167755992  166.151228733459 8.20697167755992  L 174 8.20697167755992  C 177.36 8.20697167755992  180 10.4750077808901  180 13.2178649237473  L 180 116.102040816327  C 180 118.844897959184  177.36 121  174 121  L 6 121  C 2.6400000000001 121  0 118.844897959184  0 116.102040816327  Z " stroke-width="2" stroke="#d7d7d7" fill="none" transform="matrix(1 0 0 1 261 105 )" mask="url(#clip47)" />
  </g>
</svg>