<?xml version="1.0" encoding="utf-8"?>
<svg version="1.1" xmlns:xlink="http://www.w3.org/1999/xlink" width="16px" height="16px" xmlns="http://www.w3.org/2000/svg">
  <g transform="matrix(1 0 0 1 -8 -8 )">
    <path d="M 3 8  L 5 8  L 5 13.3333333333333  L 3 13.3333333333333  L 3 8  Z M 6 2.66666666666667  L 8 2.66666666666667  L 8 13.3333333333333  L 6 13.3333333333333  L 6 2.66666666666667  Z M 1 14.6666666666667  L 16 14.6666666666667  L 16 16  L 0 16  L 0 0  L 1 0  L 1 14.6666666666667  Z M 9 5.33333333333333  L 11 5.33333333333333  L 11 13.3333333333333  L 9 13.3333333333333  L 9 5.33333333333333  Z M 12 1.33333333333333  L 14 1.33333333333333  L 14 13.3333333333333  L 12 13.3333333333333  L 12 1.33333333333333  Z " fill-rule="nonzero" fill="#0a2463" stroke="none" transform="matrix(1 0 0 1 8 8 )" />
  </g>
</svg>