<?xml version="1.0" encoding="utf-8"?>
<svg version="1.1" xmlns:xlink="http://www.w3.org/1999/xlink" width="16px" height="16px" xmlns="http://www.w3.org/2000/svg">
  <g transform="matrix(1 0 0 1 -8 -8 )">
    <path d="M 15.4655057402661 15.76491240389  C 15.8003019344872 15.4427553277394  15.8109749675245 14.9085419372959  15.4888178913738 14.5734648737844  L 11.6807920513991 10.6129270090931  C 12.6599023979216 9.44900466945195  13.1963627426886 7.98455218902503  13.1963627426886 6.45999368044096  C 13.1963627426886 2.89800933890391  10.2983534037847 0  6.73636906224766 0  C 3.1743847207106 0  0.276375381806692 2.89800933890391  0.276375381806692 6.45999368044096  C 0.276375381806692 10.021978021978  3.1743847207106 12.9199873608819  6.73636906224766 12.9199873608819  C 8.07358775409894 12.9199873608819  9.34789172488853 12.51665905979  10.4373837025594 11.7510093740126  L 14.2743390794509 15.7416002527824  C 14.4347154443001 15.9081557420216  14.6504230593687 16  14.8815784854124 16  C 15.100375662676 16  15.3079380683215 15.9165818207352  15.4655057402661 15.76491240389  Z M 1.96159112453042 6.45999368044096  C 1.96159112453042 3.82712495172559  4.10350033353228 1.68521574272373  6.73636906224766 1.68521574272373  C 9.36923779096303 1.68521574272373  11.5111469999649 3.82712495172559  11.5111469999649 6.45999368044096  C 11.5111469999649 9.09286240915634  9.36923779096303 11.2347716181582  6.73636906224766 11.2347716181582  C 4.10350033353228 11.2347716181582  1.96159112453042 9.09286240915634  1.96159112453042 6.45999368044096  Z " fill-rule="nonzero" fill="#0a2463" stroke="none" transform="matrix(1 0 0 1 8 8 )" />
  </g>
</svg>