<?xml version="1.0" encoding="utf-8"?>
<svg version="1.1" xmlns:xlink="http://www.w3.org/1999/xlink" width="28px" height="24px" xmlns="http://www.w3.org/2000/svg">
  <g transform="matrix(1 0 0 1 -1199 -24 )">
    <path d="M 27.3333333333333 22  C 27.3333333333333 23.1026666666667  26.4373333333333 24  25.3333333333333 24  L 2.66666666666667 24  C 1.564 24  0.666666666666667 23.1026666666667  0.666666666666667 22  C 0.666666666666667 21.4146666666667  0.921333333333333 20.8613333333333  1.36666666666667 20.48  C 3.468 18.704  4.66666666666667 16.12  4.66666666666667 13.384  L 4.66666666666667 9.33333333333333  C 4.66666666666667 4.18666666666667  8.85333333333333 0  14 0  C 19.1466666666667 0  23.3333333333333 4.18666666666667  23.3333333333333 9.33333333333333  L 23.3333333333333 13.384  C 23.3333333333333 16.1213333333333  24.532 18.704  26.6226666666667 20.4706666666667  C 27.0786666666667 20.8613333333333  27.3333333333333 21.4146666666667  27.3333333333333 22  Z M 22 9.33333333333333  C 22 4.92133333333333  18.412 1.33333333333333  14 1.33333333333333  C 9.588 1.33333333333333  6 4.92133333333333  6 9.33333333333333  L 6 13.384  C 6 16.5146666666667  4.62933333333333 19.468  2.23866666666667 21.4893333333333  C 2.08533333333333 21.62  2 21.8053333333333  2 22  C 2 22.368  2.29866666666667 22.6666666666667  2.66666666666667 22.6666666666667  L 25.3333333333333 22.6666666666667  C 25.7013333333333 22.6666666666667  26 22.368  26 22  C 26 21.8053333333333  25.9146666666667 21.62  25.7666666666667 21.4933333333333  C 23.372 19.468  22 16.5133333333333  22 13.384  L 22 9.33333333333333  Z " fill-rule="nonzero" fill="#0a2463" stroke="none" transform="matrix(1 0 0 1 1199 24 )" />
  </g>
</svg>