<svg xmlns="http://www.w3.org/2000/svg" width="16.379" height="16" viewBox="0 0 16.379 16"><defs><style>.a{fill:#0a2463;}</style></defs><g transform="translate(0 0.001)"><path class="a" d="M13.991,13.952a.513.513,0,0,1-.165-.028L.347,9.216a.528.528,0,0,1-.072-.959L15.63.06A.505.505,0,0,1,16.164.1a.53.53,0,0,1,.21.5L14.5,13.507a.524.524,0,0,1-.241.37.5.5,0,0,1-.265.076ZM1.806,8.619l11.768,4.112L15.213,1.463Z" transform="translate(0 0)"/><path class="a" d="M9.262,16a.5.5,0,0,1-.159-.026.522.522,0,0,1-.353-.5v-4.7a.531.531,0,0,1,.137-.356L18.271.165A.506.506,0,0,1,19,.14a.53.53,0,0,1,.025.738L9.774,10.987v2.9l1.708-2.37a.507.507,0,0,1,.716-.111.529.529,0,0,1,.109.73L9.675,15.787A.512.512,0,0,1,9.262,16Z" transform="translate(-2.778 0)"/></g></svg>