<svg xmlns="http://www.w3.org/2000/svg" width="31.968" height="32" viewBox="0 0 31.968 32"><defs><style>.a{fill:#0a2463;}</style></defs><g transform="translate(-0.2)"><g transform="translate(0.2 0)"><path class="a" d="M146.825,114.062l-5.023-2.91-4.988-2.875a1.991,1.991,0,0,0-1.524-.208,2.022,2.022,0,0,0-1.212.935,2.047,2.047,0,0,0-.208.485c-.035.1-.035.242-.069.381v11.917a2.045,2.045,0,0,0,.589,1.42,1.962,1.962,0,0,0,1.42.589,3.413,3.413,0,0,0,1.143-.381l4.919-2.841h.035l.035-.035,5.092-2.945a2,2,0,0,0,.935-1.247,1.3,1.3,0,0,0,.035-.381A2.625,2.625,0,0,0,146.825,114.062Zm-.693,2.044-5.023,2.91a.121.121,0,0,0-.069.035l-4.919,2.841a.661.661,0,0,1-.277.1.492.492,0,0,1-.208-.069.371.371,0,0,1-.069-.208V109.905a.034.034,0,0,1,.035-.035.121.121,0,0,0,.035-.069c.035-.035.1-.069.139-.1h.173c.035.035.069.035.1.069l4.919,2.841a.107.107,0,0,0,.069.035h.035l5.023,2.91c.069.035.208.139.208.242A.4.4,0,0,1,146.132,116.106Z" transform="translate(-123.605 -99.853)"/><path class="a" d="M27.5,4.7A15.949,15.949,0,0,0,4.9,4.673,16.092,16.092,0,0,0,.2,16.016,15.984,15.984,0,1,0,27.5,4.7ZM26.367,26.167a14.315,14.315,0,0,1-20.3,0,14.315,14.315,0,0,1,0-20.3A14.373,14.373,0,0,1,30.589,16.016,14.194,14.194,0,0,1,26.367,26.167Z" transform="translate(-0.2 0)"/></g></g></svg>