<svg xmlns="http://www.w3.org/2000/svg" width="15.984" height="16" viewBox="0 0 15.984 16"><defs><style>.a{fill:#FFF;}</style></defs><g transform="translate(-0.2)"><g transform="translate(0.2 0)"><path class="a" d="M140.354,111.05l-2.527-1.464-2.51-1.447a1,1,0,0,0-.767-.1,1.018,1.018,0,0,0-.61.471,1.03,1.03,0,0,0-.1.244c-.017.052-.017.122-.035.192v6a1.029,1.029,0,0,0,.3.715.987.987,0,0,0,.715.3,1.717,1.717,0,0,0,.575-.192l2.475-1.429h.017l.017-.017,2.562-1.482a1,1,0,0,0,.471-.628.654.654,0,0,0,.017-.192A1.321,1.321,0,0,0,140.354,111.05Zm-.349,1.028-2.527,1.464a.061.061,0,0,0-.035.017l-2.475,1.429a.333.333,0,0,1-.139.052.248.248,0,0,1-.1-.035.187.187,0,0,1-.035-.1v-5.944a.017.017,0,0,1,.017-.017.061.061,0,0,0,.017-.035c.017-.017.052-.035.07-.052h.087c.017.017.035.017.052.035l2.475,1.429a.054.054,0,0,0,.035.017h.017l2.527,1.464c.035.017.1.07.1.122A.2.2,0,0,1,140.005,112.079Z" transform="translate(-128.728 -103.952)"/><path class="a" d="M13.848,2.352a7.974,7.974,0,0,0-11.3-.016A8.046,8.046,0,0,0,.2,8.008,7.992,7.992,0,1,0,13.848,2.352Zm-.564,10.731a7.158,7.158,0,0,1-10.151,0,7.158,7.158,0,0,1,0-10.151A7.186,7.186,0,0,1,15.394,8.008,7.1,7.1,0,0,1,13.284,13.084Z" transform="translate(-0.2 0)"/></g></g></svg>