<svg xmlns="http://www.w3.org/2000/svg" width="32" height="32" viewBox="0 0 32 32"><defs><style>.a{fill:#FFF;}</style></defs><g transform="translate(-4.009 -4.009)"><path class="a" d="M31.1,11.635A13.774,13.774,0,0,0,11.635,31.1l4.455-4.456a.574.574,0,0,1,.812,0,6.887,6.887,0,1,0,9.74-9.74.574.574,0,0,1,0-.811Zm-4.083-.09.574-.995a.574.574,0,1,1,.994.574l-.574.995a.574.574,0,1,1-.994-.574ZM21.2,9.146a.574.574,0,0,1,1.148,0v1.148a.574.574,0,0,1-1.148,0ZM15.172,10.34a.574.574,0,0,1,.784.21l.574.995a.574.574,0,1,1-.994.574l-.574-.995a.574.574,0,0,1,.21-.784Zm-6.6,11.432a.574.574,0,0,1,.574-.574h1.148a.574.574,0,0,1,0,1.148H9.146A.574.574,0,0,1,8.572,21.772Zm3.547,6.236-.995.574a.574.574,0,1,1-.574-.994l.995-.574a.574.574,0,1,1,.574.994Zm.21-11.688a.574.574,0,0,1-.784.21l-.995-.574a.574.574,0,1,1,.574-.994l.995.574A.574.574,0,0,1,12.329,16.32Zm3.13,6.026a.574.574,0,0,1,0-1.148h4.1a2.3,2.3,0,0,1,1.64-1.64V13.163a.574.574,0,0,1,1.148,0v6.395a2.291,2.291,0,1,1-2.788,2.788Zm12.052-.574a5.736,5.736,0,0,1-9.8,4.055.574.574,0,1,1,.813-.81,4.588,4.588,0,1,0,6.489-6.489.574.574,0,1,1,.81-.812,5.69,5.69,0,0,1,1.684,4.056Z" transform="translate(-1.699 -1.699)"/><path class="a" d="M30.427,34.486,33.2,37.258,37.257,33.2l-2.771-2.772a.574.574,0,0,1-.1-.689,11.759,11.759,0,0,0,1.068-2.583.574.574,0,0,1,.553-.421h3.923V21H36.012a.574.574,0,0,1-.553-.42,11.75,11.75,0,0,0-1.068-2.583.574.574,0,0,1,.1-.689l2.771-2.772L35.634,12.91l-5.7,5.7A8.035,8.035,0,0,1,18.6,29.939l-5.7,5.7,1.623,1.623L17.3,34.486a.574.574,0,0,1,.689-.1,11.759,11.759,0,0,0,2.583,1.068.574.574,0,0,1,.42.553v3.923h5.74V36.012a.574.574,0,0,1,.42-.553,11.759,11.759,0,0,0,2.583-1.068.574.574,0,0,1,.69.1Zm7.212-11.194h1.148V24.44H37.639ZM34.011,33.2l.812.812-.812.812-.812-.812Zm-9.572,5.588H23.291V37.64h1.148Z" transform="translate(-3.926 -3.927)"/><circle class="a" cx="1" cy="1" r="1" transform="translate(18.685 18.685)"/><path class="a" d="M8.315,31.021l.81-.81A14.922,14.922,0,0,1,30.211,9.125l.81-.81A16.066,16.066,0,0,0,8.315,31.021Z" transform="translate(0)"/></g></svg>